<svg viewBox="5 5 90 90" xmlns="http://www.w3.org/2000/svg">
  <defs>
    <linearGradient id="brandGradImproved" x1="0%" y1="0%" x2="100%" y2="100%">
      <stop offset="0%" stop-color="#38BDF8"/> 
      <stop offset="50%" stop-color="#818CF8"/> 
      <stop offset="100%" stop-color="#A855F7"/> 
    </linearGradient>
    
    <linearGradient id="lineGradImproved" x1="0%" y1="0%" x2="100%" y2="100%">
      <stop offset="0%" stop-color="#38BDF8" stop-opacity="0.95"/>
      <stop offset="50%" stop-color="#818CF8" stop-opacity="0.95"/>
      <stop offset="100%" stop-color="#A855F7" stop-opacity="0.95"/>
    </linearGradient>

    <filter id="electricGlow" x="-50%" y="-50%" width="200%" height="200%">
      <feGaussianBlur stdDeviation="3.5" in="SourceGraphic" result="outerGlow"/>
      <feMerge>
        <feMergeNode in="outerGlow"/>
        <feMergeNode in="SourceGraphic"/>
      </feMerge>
    </filter>
  </defs>

  <g transform="translate(0, 12)" filter="url(#electricGlow)">
    <g stroke="url(#lineGradImproved)" stroke-width="6" stroke-linecap="round" stroke-linejoin="round">
      <line x1="20" y1="35" x2="50" y2="12" />
      <line x1="50" y1="12" x2="80" y2="35" />
      <line x1="80" y1="35" x2="65" y2="68" />
      <line x1="65" y1="68" x2="35" y2="68" />
      <line x1="35" y1="68" x2="20" y2="35" />
      <line x1="50" y1="45" x2="20" y2="35" />
      <line x1="50" y1="45" x2="50" y2="12" />
      <line x1="50" y1="45" x2="80" y2="35" />
    </g>

    <circle cx="20" cy="35" r="7" fill="#818CF8" /> 
    <circle cx="50" cy="12" r="10" fill="url(#brandGradImproved)"/> 
    <circle cx="80" cy="35" r="7" fill="#4ADE80" /> 
    <circle cx="65" cy="68" r="6" fill="#A7F3D0" /> 
    <circle cx="35" cy="68" r="6" fill="#C7D2FE" /> 
    <circle cx="50" cy="45" r="9" fill="url(#brandGradImproved)"/> 
  </g>
</svg>
